<svg width="24" height="24" viewBox="0 0 24 24" fill="none" xmlns="http://www.w3.org/2000/svg">
<path d="M6.88266 11.495C6.88266 12.7271 7.36232 13.8849 8.23356 14.7563C8.23357 14.7563 8.23358 14.7564 8.23359 14.7564M6.88266 11.495L14.8624 14.8624C13.9629 15.7618 12.7669 16.2573 11.495 16.2573C10.223 16.2573 9.02706 15.7618 8.12751 14.8624L8.23359 14.7564M6.88266 11.495C6.88266 10.2628 7.36232 9.10501 8.23356 8.23359M6.88266 11.495L8.23356 8.23359M8.23359 14.7564C9.10501 15.6276 10.2628 16.1073 11.495 16.1073C12.7271 16.1073 13.8849 15.6276 14.7563 14.7564M8.23359 14.7564H14.7563M14.7563 14.7564C14.7563 14.7564 14.7564 14.7563 14.7564 14.7563M14.7563 14.7564L14.7564 14.7563M14.7564 14.7563C15.6276 13.8849 16.1073 12.7271 16.1073 11.495C16.1073 10.2628 15.6276 9.10501 14.7564 8.23359C14.7564 8.23358 14.7563 8.23357 14.7563 8.23356M14.7564 14.7563L8.12751 8.12751C9.02706 7.22814 10.223 6.73266 11.495 6.73266C12.7669 6.73266 13.9629 7.22814 14.8624 8.12751L14.7563 8.23356M14.7563 8.23356C13.8849 7.36232 12.7271 6.88266 11.495 6.88266C10.2628 6.88266 9.10501 7.36232 8.23359 8.23356M14.7563 8.23356H8.23359M8.23359 8.23356C8.23358 8.23357 8.23357 8.23358 8.23356 8.23359M8.23359 8.23356L8.23356 8.23359M18.5949 17.8648L15.831 15.1009C16.6753 14.0895 17.1399 12.8291 17.1399 11.495C17.1399 9.98734 16.5524 8.56937 15.4865 7.50343C14.4206 6.43749 13.0026 5.85 11.495 5.85C9.98734 5.85 8.56937 6.43749 7.50343 7.50343C6.43749 8.56937 5.85 9.98734 5.85 11.495C5.85 13.0026 6.43749 14.4206 7.50343 15.4865C8.56937 16.5524 9.98734 17.1399 11.495 17.1399C12.8291 17.1399 14.0895 16.6753 15.1009 15.831L17.8648 18.5949C17.9656 18.6957 18.0979 18.7462 18.2299 18.7462C18.3618 18.7462 18.4942 18.6957 18.5949 18.5949C18.7966 18.3933 18.7966 18.0665 18.5949 17.8648Z" fill="black" stroke="black" stroke-width="0.3"/>
</svg>
